<?xml version="1.0" encoding="UTF-8"?>
<svg width="1200pt" height="1200pt" version="1.1" viewBox="0 0 1200 1200" xmlns="http://www.w3.org/2000/svg">
 <path d="m366 264v-206.39c0-15.609-12-27.609-27.609-27.609s-27.609 12-27.609 27.609v206.39c0 15.609 12 27.609 27.609 27.609 15.609-1.2188 27.609-13.219 27.609-27.609z"/>
 <path d="m888 264v-206.39c0-15.609-12-27.609-27.609-27.609s-27.609 12-27.609 27.609v206.39c0 15.609 12 27.609 27.609 27.609 15.609-1.2188 27.609-13.219 27.609-27.609z"/>
 <path d="m1005.6 126h-88.781l-0.046875 138c0 30-25.219 55.219-55.219 55.219s-55.219-25.219-55.219-55.219v-136.78h-412.74v136.78c0 30-25.219 55.219-55.219 55.219s-55.219-25.219-55.219-55.219v-136.78h-88.781c-64.781 0-116.39 51.609-116.39 116.39v810c0 64.781 51.609 116.39 116.39 116.39h810c64.781 0 116.39-51.609 116.39-116.39v-811.22c1.2188-63.609-51.562-116.39-115.17-116.39zm-735.61 852c-19.219 0-34.781-15.609-34.781-34.781 0-19.219 15.609-34.781 34.781-34.781 19.219 0 34.781 15.609 34.781 34.781s-15.562 34.781-34.781 34.781zm0-138c-19.219 0-34.781-15.609-34.781-34.781 0-19.219 15.609-34.781 34.781-34.781 19.219 0 34.781 15.609 34.781 34.781 0 20.391-15.562 34.781-34.781 34.781zm0-136.78c-19.219 0-34.781-15.609-34.781-34.781 0-19.219 15.609-34.781 34.781-34.781 19.219 0 34.781 15.609 34.781 34.781s-15.562 34.781-34.781 34.781zm0-138c-19.219 0-34.781-15.609-34.781-34.781 0-19.219 15.609-34.781 34.781-34.781 19.219 0 34.781 15.609 34.781 34.781s-15.562 34.781-34.781 34.781zm165.61 412.78c-19.219 0-34.781-15.609-34.781-34.781 0-19.219 15.609-34.781 34.781-34.781 19.219 0 34.781 15.609 34.781 34.781-1.1719 19.172-15.609 34.781-34.781 34.781zm0-138c-19.219 0-34.781-15.609-34.781-34.781 0-19.219 15.609-34.781 34.781-34.781 19.219 0 34.781 15.609 34.781 34.781-1.1719 20.391-15.609 34.781-34.781 34.781zm0-136.78c-19.219 0-34.781-15.609-34.781-34.781 0-19.219 15.609-34.781 34.781-34.781 19.219 0 34.781 15.609 34.781 34.781-1.1719 19.172-15.609 34.781-34.781 34.781zm0-138c-19.219 0-34.781-15.609-34.781-34.781 0-19.219 15.609-34.781 34.781-34.781 19.219 0 34.781 15.609 34.781 34.781s-15.609 34.781-34.781 34.781zm164.39 412.78c-19.219 0-34.781-15.609-34.781-34.781 0-19.219 15.609-34.781 34.781-34.781 19.219 0 34.781 15.609 34.781 34.781s-15.562 34.781-34.781 34.781zm0-138c-19.219 0-34.781-15.609-34.781-34.781 0-19.219 15.609-34.781 34.781-34.781 19.219 0 34.781 15.609 34.781 34.781 0 20.391-15.562 34.781-34.781 34.781zm0-136.78c-19.219 0-34.781-15.609-34.781-34.781 0-19.219 15.609-34.781 34.781-34.781 19.219 0 34.781 15.609 34.781 34.781s-15.562 34.781-34.781 34.781zm0-138c-19.219 0-34.781-15.609-34.781-34.781 0-19.219 15.609-34.781 34.781-34.781 19.219 0 34.781 15.609 34.781 34.781s-15.562 34.781-34.781 34.781zm164.39 412.78c-19.219 0-34.781-15.609-34.781-34.781 0-19.219 15.609-34.781 34.781-34.781 19.219 0 34.781 15.609 34.781 34.781 0.046875 19.172-15.562 34.781-34.781 34.781zm0-138c-19.219 0-34.781-15.609-34.781-34.781 0-19.219 15.609-34.781 34.781-34.781 19.219 0 34.781 15.609 34.781 34.781 0.046875 20.391-15.562 34.781-34.781 34.781zm0-136.78c-19.219 0-34.781-15.609-34.781-34.781 0-19.219 15.609-34.781 34.781-34.781 19.219 0 34.781 15.609 34.781 34.781 0.046875 19.172-15.562 34.781-34.781 34.781zm0-138c-19.219 0-34.781-15.609-34.781-34.781 0-19.219 15.609-34.781 34.781-34.781 19.219 0 34.781 15.609 34.781 34.781 0.046875 19.172-15.562 34.781-34.781 34.781zm165.61 412.78c-19.219 0-34.781-15.609-34.781-34.781 0-19.219 15.609-34.781 34.781-34.781 19.219 0 34.781 15.609 34.781 34.781-1.1719 19.172-15.562 34.781-34.781 34.781zm0-138c-19.219 0-34.781-15.609-34.781-34.781 0-19.219 15.609-34.781 34.781-34.781 19.219 0 34.781 15.609 34.781 34.781-1.1719 20.391-15.562 34.781-34.781 34.781zm0-136.78c-19.219 0-34.781-15.609-34.781-34.781 0-19.219 15.609-34.781 34.781-34.781 19.219 0 34.781 15.609 34.781 34.781-1.1719 19.172-15.562 34.781-34.781 34.781zm0-138c-19.219 0-34.781-15.609-34.781-34.781 0-19.219 15.609-34.781 34.781-34.781 19.219 0 34.781 15.609 34.781 34.781s-15.562 34.781-34.781 34.781z"/>
</svg>
