<?xml version="1.0" encoding="UTF-8"?>
<svg width="1200pt" height="1200pt" version="1.1" viewBox="0 0 1200 1200" xmlns="http://www.w3.org/2000/svg">
 <path d="m600 37.5c-104.39 0.09375-204.47 41.625-278.29 115.45s-115.36 173.9-115.45 278.29c0 266.21 363.84 705.94 379.36 724.5 3.5625 4.2656 8.8125 6.75 14.391 6.75s10.828-2.4844 14.391-6.75c15.516-18.562 379.36-458.29 379.36-724.5-0.09375-104.39-41.625-204.47-115.45-278.29s-173.9-115.36-278.29-115.45zm0 600c-54.703 0-107.16-21.75-145.82-60.422s-60.422-91.125-60.422-145.82c0-54.699 21.75-107.16 60.422-145.82 38.672-38.668 91.125-60.422 145.82-60.422s107.16 21.75 145.82 60.422c38.668 38.672 60.422 91.125 60.422 145.82-0.046875 54.703-21.797 107.11-60.469 145.78-38.672 38.672-91.078 60.422-145.78 60.469z"/>
</svg>
