<?xml version="1.0" encoding="UTF-8"?>
<svg width="1200pt" height="1200pt" version="1.1" viewBox="0 0 1200 1200" xmlns="http://www.w3.org/2000/svg">
 <path d="m800.52 455.04c9.4805-9.3594 9.6016-24.48 0.23828-33.961-9.3594-9.4805-24.48-9.4805-33.961-0.23828l-186 183.24c-9.4805 9.3594-9.6016 24.48-0.23828 33.961 4.6797 4.8008 10.922 7.1992 17.039 7.1992 6.1211 0 12.121-2.2812 16.801-6.9609l186-183.24z" fill="#ff001b"/>
 <path d="m806.16 746.16h-176.52c-13.199 0-24 10.801-24 24 0 13.199 10.801 24 24 24h176.52c13.199 0 24-10.801 24-24 0-13.199-10.801-24-24-24z" fill="#ff001b"/>
 <path d="m441.84 381.84c-13.199 0-24 10.801-24 24v176.52c0 13.199 10.801 24 24 24 13.199 0 24-10.801 24-24v-176.52c0-13.199-10.801-24-24-24z" fill="#ff001b"/>
</svg>
