<?xml version="1.0" encoding="UTF-8"?>
<svg width="1200pt" height="1200pt" version="1.1" viewBox="0 0 1200 1200" xmlns="http://www.w3.org/2000/svg">
 <path d="m694.95 936.27c-40.879 51.43 32.969 109.45 71.207 55.383 87.031-120 166.15-247.91 225.5-383.73 50.109-114.73 92.309-261.1 35.605-381.1-61.977-131.87-205.71-39.559-270.33 35.605-60.66 71.207-101.54 155.61-135.82 242.64-31.648-105.5-68.57-208.35-126.59-303.3-56.707-96.266-176.71-196.49-286.16-101.54-110.77 96.266-60.66 254.5-15.824 370.55 48.793 126.59 113.41 247.91 195.16 356.04 92.309 120 200.44 225.5 320.44 316.48 18.461 14.504 38.242-17.145 18.461-31.648-228.13-176.7-402.2-436.48-491.87-710.77-22.418-68.57-48.793-156.92-3.957-222.86 54.066-80.441 134.5-34.285 180.66 27.691 90.988 123.96 130.55 282.2 172.75 427.25 10.551 36.922 59.34 32.969 71.207 0 35.605-97.582 72.527-193.85 130.55-280.88 26.375-39.559 60.66-84.395 104.18-108.13 69.891-38.242 89.672 30.328 93.625 88.352 6.5938 113.41-46.152 221.54-97.582 317.8-56.703 101.54-120 197.8-191.21 286.16z"/>
</svg>
