<?xml version="1.0" encoding="UTF-8"?>
<svg width="1200pt" height="1200pt" version="1.1" viewBox="0 0 1200 1200" xmlns="http://www.w3.org/2000/svg">
 <path d="m600 237.84c66.844 0 130.92 26.531 178.18 73.828 47.297 47.25 73.828 111.33 73.828 178.18 0 66.844-26.531 130.92-73.828 178.18-47.25 47.297-111.33 73.828-178.18 73.828s-130.92-26.531-178.18-73.828c-47.297-47.25-73.828-111.33-73.828-178.18 0-66.844 26.531-130.92 73.828-178.18 47.25-47.297 111.33-73.828 178.18-73.828zm-10.688 883.08 10.688 12c57.609-67.453 114.7-134.76 176.16-201.71 120-130.45 247.69-270.14 247.69-441.47v-0.046876c0-151.4-80.766-291.32-211.92-367.03-131.16-75.703-292.69-75.703-423.84 0-131.16 75.703-211.92 215.63-211.92 367.03 0 172.69 129.84 312.94 249.94 444 57.047 62.906 110.06 124.92 163.22 187.22z" fill-rule="evenodd"/>
</svg>
