<?xml version="1.0" encoding="UTF-8"?>
<svg width="1200pt" height="1200pt" version="1.1" viewBox="0 0 1200 1200" xmlns="http://www.w3.org/2000/svg">
 <path d="m755.61 983.73c1.3203 36.922 54.066 44.836 64.617 9.2305 19.781-63.297 15.824-141.1 13.188-207.03-2.6367-60.66-6.5938-122.64-21.098-181.98-15.824-61.977-48.793-109.45-97.582-131.87 19.781-14.504 36.922-32.969 51.43-54.066 35.605-51.43 56.703-122.64 36.922-184.62-18.461-56.703-75.164-93.625-134.5-77.801-44.836 11.867-25.055 85.715 19.781 69.891 59.34-21.098 61.977 67.254 51.43 102.86-10.551 36.922-32.969 71.207-61.977 94.945-64.617 52.746-154.29 47.473-213.62-10.551-59.352-56.703-64.629-149.01-22.43-214.95 44.836-69.891 175.38-104.18 245.27-52.746 9.2305 6.5938 19.781-7.9102 11.867-15.824-81.758-81.758-241.32-39.559-301.98 50.109-67.254 100.22-39.559 238.68 59.34 305.93 15.824 10.551 31.648 18.461 47.473 23.734-60.66 38.242-108.13 93.625-133.19 164.84-19.781 56.703-27.691 121.32-27.691 181.98 0 48.793-1.3203 123.96 30.328 163.52 5.2734 6.5938 17.145 2.6367 19.781-5.2734 11.867-40.879-2.6367-92.309-1.3203-134.5 1.3203-48.793 6.5938-97.582 18.461-143.73 25.055-100.22 88.352-166.15 184.62-200.44 42.199-14.504 92.309-23.734 123.96 17.145 25.055 32.969 31.648 77.801 35.605 117.36 6.5938 48.789 10.551 98.902 10.551 147.69-1.3203 55.387-11.867 112.09-9.2305 166.15z"/>
 <path d="m1072.1 655.38c-34.285-7.9102-87.031-3.957-110.77 23.734-5.2734 6.5938-3.957 15.824 5.2734 19.781 29.012 10.551 60.66-3.957 90.988 7.9102 30.328 10.551 40.879 39.559 47.473 67.254 17.145 73.848 1.3203 143.73 2.6367 218.9 0 38.242 52.746 43.516 64.617 9.2305 17.145-50.109 13.188-110.77 7.9102-163.52-3.957-40.879-9.2305-85.715-30.328-122.64-17.145-30.328-43.516-52.746-77.801-60.66z"/>
 <path d="m884.84 622.42c88.352 38.242 197.8 5.2734 229.45-90.988 17.145-52.746 1.3203-112.09-38.242-145.05 5.2734-5.2734 5.2734-14.504-1.3203-19.781-75.164-55.383-200.44-47.473-251.87 38.242-46.152 77.801-23.734 180.66 61.98 217.58zm3.957-213.62c21.098-19.781 50.109-27.691 79.121-29.012-7.9102 21.098 9.2305 52.746 38.242 46.152 30.328-6.5938 51.43 23.734 54.066 50.109 3.957 29.012-9.2305 60.66-31.648 79.121-38.242 34.285-112.09 30.328-149.01-5.2734-36.926-35.605-29.012-105.5 9.2305-141.1z"/>
 <path d="m88.352 974.5c0-73.848-14.504-143.73 2.6367-218.9 6.5938-29.012 17.145-56.703 47.473-67.254 30.328-10.551 61.977 3.957 90.988-7.9102 9.2305-2.6367 10.551-11.867 5.2734-19.781-22.418-27.691-71.207-30.328-104.18-25.055-36.922 6.5938-65.934 29.012-84.395 60.66-19.781 34.285-25.055 75.164-29.012 114.73-6.5938 54.066-10.551 118.68 6.5938 171.43 10.551 35.605 63.297 30.328 64.617-7.9141z"/>
 <path d="m338.9 383.73c0-13.188-6.5938-26.375-23.734-30.328-73.848-14.504-158.24-10.551-199.12 61.977-23.738 44.836-27.695 104.18-2.6406 149.01 48.793 88.352 187.25 100.22 247.91 18.461 36.926-48.789 34.289-162.2-22.414-199.12zm-54.066 188.57c-64.617 25.055-134.5-13.188-129.23-87.031 1.3203-9.2305 7.9102-34.285 18.461-48.793 30.328-39.559 81.758-31.648 123.96-21.098 7.9102 2.6367 14.504 1.3203 19.781-1.3203 11.867 21.098 14.504 48.793 15.824 69.891 2.6367 40.879-10.551 73.844-48.793 88.352z"/>
</svg>
