<?xml version="1.0" encoding="UTF-8"?>
<svg width="1200pt" height="1200pt" version="1.1" viewBox="0 0 1200 1200" xmlns="http://www.w3.org/2000/svg">
 <path d="m79.922 1116.4c12.602 12.602 29.281 19.199 46.32 19.199 8.2812 0 16.559-1.5586 24.602-4.8008l561.6-226.68c20.52-8.2812 35.281-26.039 39.719-47.762 4.4414-21.602-2.2812-43.922-17.879-59.52l-334.92-334.92c-15.602-15.602-37.801-22.32-59.52-17.879-21.602 4.4414-39.48 19.199-47.762 39.719l-226.56 561.61c-9.8398 24.48-4.1992 52.32 14.398 70.922zm275.76-595.08 319.32 319.32-115.44 46.559-250.56-250.56 46.559-115.44zm-75.238 186.48 208.08 208.08-109.44 44.16 1.1992-1.1992-143.4-143.4 43.441-107.76zm-72.238 178.8 101.52 101.52-170.16 68.762 68.641-170.16z"/>
 <path d="m833.16 441 9.2383-68.039 68.039-9.2383c18.238-2.5195 31.078-19.32 28.559-37.559-2.5195-18.238-19.441-31.078-37.559-28.559l-93.238 12.602c-14.879 2.0391-26.641 13.68-28.559 28.559l-9.2383 68.039-68.039 9.2383c-14.879 2.0391-26.52 13.68-28.559 28.559l-9.2383 68.16-68.16 9.2383c-18.238 2.5195-31.078 19.32-28.559 37.559 2.2812 16.801 16.559 28.922 33 28.922 1.4414 0 3 0 4.5586-0.35938l93.359-12.719c14.879-2.0391 26.52-13.68 28.559-28.559l9.2383-68.16 68.16-9.2383c14.879-2.0391 26.641-13.68 28.559-28.559z"/>
 <path d="m1136.4 669.12c6-17.398-3.3594-36.48-20.762-42.48l-75.121-25.68c-14.039-4.8008-29.52 0.23828-38.039 12.238l-31.559 44.398-51.602-17.641c-14.039-4.8008-29.398 0.23828-38.039 12.238l-31.559 44.398-51.602-17.641c-17.52-6-36.48 3.3594-42.359 20.762-6 17.398 3.3594 36.48 20.762 42.359l75.238 25.68c3.4805 1.1992 7.1992 1.8008 10.801 1.8008 10.559 0 20.879-5.0391 27.238-14.039l31.559-44.398 51.602 17.641c14.039 4.8008 29.52-0.23828 38.039-12.238l31.559-44.398 51.48 17.641c17.52 6 36.48-3.3594 42.48-20.762z"/>
 <path d="m593.88 70.078c-10.68-15-31.559-18.602-46.559-7.9219l-64.68 45.961c-12 8.5195-17.039 24-12.238 38.039l17.641 51.48-44.398 31.559c-12 8.5195-17.039 24-12.238 38.039l17.641 51.602-44.52 31.559c-15 10.68-18.602 31.559-7.9219 46.559 6.4805 9.1211 16.801 14.039 27.238 14.039 6.7188 0 13.441-2.0391 19.32-6.1211l64.801-46.078c12-8.5195 17.039-24 12.238-38.039l-17.641-51.602 44.398-31.559c12-8.5195 17.039-24 12.238-38.039l-17.641-51.48 44.398-31.559c15-10.68 18.602-31.559 7.9219-46.559z"/>
 <path d="m556.8 405.48-14.16 14.16c-5.6406 5.6406-5.6406 14.879 0 20.641l14.16 14.16c2.8789 2.8789 6.6016 4.3203 10.32 4.3203s7.4414-1.4414 10.32-4.3203l14.16-14.16c5.6406-5.6406 5.6406-14.879 0-20.641l-14.16-14.16c-5.5195-5.5195-15.121-5.5195-20.641 0z"/>
 <path d="m993.24 449.52-14.16 14.16c-5.6406 5.6406-5.6406 14.879 0 20.641l14.16 14.16c2.7617 2.7617 6.4805 4.3203 10.32 4.3203s7.5586-1.5586 10.32-4.3203l14.16-14.16c2.7617-2.7617 4.3203-6.4805 4.3203-10.32s-1.5586-7.5586-4.3203-10.32l-14.16-14.16c-5.6406-5.6406-14.879-5.6406-20.641 0z"/>
 <path d="m304.8 281.64-14.16 14.16c-5.6406 5.6406-5.6406 14.879 0 20.641l14.16 14.16c2.8789 2.8789 6.6016 4.3203 10.32 4.3203s7.4414-1.4414 10.32-4.3203l14.16-14.16c5.6406-5.6406 5.6406-14.879 0-20.641l-14.16-14.16c-5.5195-5.5195-15.121-5.5195-20.641 0z"/>
 <path d="m843.12 527.04h33.961c10.074 0 18.238 10.074 18.238 18.238v33.961c0 10.074-8.168 18.238-18.238 18.238h-33.961c-10.074 0-18.238-10.074-18.238-18.238v-33.961c0-10.074 8.168-18.238 18.238-18.238z"/>
 <path d="m338.28 58.559h33.961c10.074 0 18.238 10.074 18.238 18.238v33.961c0 10.074-8.168 18.238-18.238 18.238h-33.961c-10.074 0-18.238-10.074-18.238-18.238v-33.961c0-10.074 8.168-18.238 18.238-18.238z"/>
 <path d="m1069 784.2h33.961c10.074 0 18.238 10.074 18.238 18.238v33.961c0 10.074-8.168 18.238-18.238 18.238h-33.961c-10.074 0-18.238-10.074-18.238-18.238v-33.961c0-10.074 8.168-18.238 18.238-18.238z"/>
 <path d="m880.8 845.28c-4.6797-1.1992-9.6016-0.48047-13.801 2.0391-4.1992 2.5195-7.1992 6.4805-8.2812 11.16l-8.3984 33c-2.5195 9.7188 3.4805 19.68 13.199 22.078l98.398 24.961c1.4414 0.35938 3 0.60156 4.4414 0.60156 3.2383 0 6.4805-0.83984 9.3594-2.5195 4.1992-2.5195 7.1992-6.4805 8.2812-11.16l8.3984-33c2.5195-9.7188-3.4805-19.68-13.199-22.078l-98.398-24.961z"/>
 <path d="m728.4 165.96-29.398-17.039c-8.6406-5.0391-19.922-2.0391-24.84 6.7188l-50.762 87.84c-5.0391 8.7617-2.0391 19.922 6.7188 24.961l29.398 17.039c2.7617 1.5586 6 2.3984 9.1211 2.3984 1.5586 0 3.1211-0.23828 4.6797-0.60156 4.6797-1.1992 8.6406-4.3203 11.039-8.5195l50.762-87.84c2.3984-4.1992 3.1211-9.1211 1.8008-13.801-1.1992-4.6797-4.3203-8.6406-8.5195-11.039z"/>
</svg>
