<?xml version="1.0" encoding="UTF-8"?>
<svg width="1200pt" height="1200pt" version="1.1" viewBox="0 0 1200 1200" xmlns="http://www.w3.org/2000/svg">
 <path d="m899.63 699.1 156.98 95.859c29.438 17.953 49.031 48.422 53.109 82.688 4.0781 34.219-7.8281 68.484-32.203 92.859-30.516 30.516-65.625 65.625-92.297 91.969-35.859 35.859-87.422 51.141-137.02 40.594l-0.09375-0.046875c-426.79-91.969-683.16-349.22-770.76-770.39v-0.14062c-10.078-49.359 5.2969-100.5 40.922-136.08l92.625-92.578c24.328-24.375 58.594-36.234 92.812-32.156 34.266 4.0781 64.734 23.672 82.734 53.062l95.812 156.98c27.094 44.344 20.297 101.44-16.453 138.19-10.359 10.312-21.281 21.234-30.656 31.078-0.1875 0.1875-0.375 0.42188-0.60938 0.65625-9.375 9.375-13.078 23.062-9.6094 35.906 37.688 138.56 127.64 227.68 268.87 268.5 13.125 3.7031 27.188 0 36.797-9.6094l30.891-30.891c36.703-36.703 93.797-43.5 138.14-16.453z" fill-rule="evenodd"/>
</svg>
