<?xml version="1.0" encoding="UTF-8"?>
<svg width="1200pt" height="1200pt" version="1.1" viewBox="0 0 1200 1200" xmlns="http://www.w3.org/2000/svg">
 <path d="m877.41 752.8c-53.051-20.027-73.836-52.414-130.96-65.496 5.4258 19.645 28.223 56.293-2.7344 73.68-38.629-10.801-113.44-83.496-147.35-5.4609-6.3242 0.875-10.477-0.43359-13.645-2.7227-6.0586 8.4844-9.0703 20.027-16.367 27.277-9.707-5.7617-20.34-10.586-27.289-19.105-10.105 5.3516-23.16 7.7656-35.473 10.922-7.0312-8.4375-15.938-14.988-13.645-32.746-30.238-27.059-76.703-37.883-111.86-60.023-41.398 19.547-77.914 43.969-125.51 57.301-11.074-17.797-22.754-34.535-8.1953-46.391-12.887-1.0195-28.57 18.695-49.105 19.117-43.105-35.195 16.859-69.324 35.473-92.762-42.949 26.172-78.66 59.566-133.7 73.656-8.0391-6.2383-18.77-15.898-13.645-27.266-0.96094-4.2852-4.8008 2.3633-5.4609-2.7344-1.0312-9.2383 4.7266-11.652 8.1836-16.379-20.977-19.176-15.445-40.414-13.645-65.473 1.8359-25.68-23.484-43.02-21.828-70.945 5.8203 1.2734 5.1953-3.8984 5.4609-8.1953 9.8281 8.3633 17.051 19.32 21.828 32.746 1.8945-6.3711 5.7461-14.832 10.922-24.551 36.254 2.2578 75.637 21.684 114.6 30.012 3.5742-0.96094 4.2852-4.8008 8.1836-5.4609-12.984-14.605-46.859-23.773-65.484-40.922-3.7578-21.949 12.145-24.238 13.645-40.934 63.109 5.4375 111.11 34.152 166.44 54.574 14.195-6.7305 28.008-13.824 46.391-16.367 6.2148-5.5078-12.613-9.0703-10.922-19.105 4.4648-10.094 8.9023-20.207 16.367-27.277 10.801-0.80469 16.68 3.3242 21.828 8.1836 9-5.293 11.891-22.777 13.645-27.277 133.74 23.473 239.12 95.891 349.25 158.26 9.6484-4.6328 9.6016 0.023437 21.828 0 16.727 19.645 36.406 35.039 60.023 35.484-32.711-21.852-71.125-46.414-103.68-60.035-0.34766-4.8945 3.3359-5.7461 2.7344-10.922-2.5547 2.0039-4.1523 4.9688-5.4727 8.1953-61.895-39.059-139.14-62.762-196.44-106.41 8.1016-18.551 11.605-11.902 19.094-27.277 62.484 3.9258 99.695 47.641 147.35 57.289 3.7578 2.7461-1.1758 4.5117 5.4492 8.1953 4.4883-10.152 16.523 4.6328 30.023 8.1836 5.7461-0.82812-2.8672-9.4688-8.207-8.1836 8.5547-4.7891 22.633 8.2305 24.562 19.105 3.9609-1.4883 14.113 3.1914 13.645-2.7344-1.2227 5.6055 6.1211 9.7188 13.656 13.645 1.8711-7.332-5.6406-5.2695-8.1836-8.1836 31.309 3.2539 61.559 31.199 92.746 43.656 0.21484 7.0195 12.719 3.8984 5.4609 10.906 15.445-8.4258 23.578 8.1016 27.289 13.656 36.469-2.6406 53.93-24.289 81.84-35.473 14.125 6.3242 19.824 21.434 21.828 32.746-8.3633 17.102-34.895 16.031-46.367 30.012 6.6016 6.1211 14.953 10.512 21.816 16.367 57.949-25.98 115.62-42.422 163.71-81.852 16.402 63.086-79.57 76.512-128.24 100.96 15.562 23.543 43.211 35.016 54.574 62.746-0.79297 13.766-13.199 15.91-13.656 30.023-13.367-2.1016-20.195-10.754-30-16.379-7.5977 5.1602 6.9492 11.016 2.7227 21.828-8.1484 2.7734-7.4883 14.34-10.922 21.816-38.867-14.305-71.531-32.352-106.4-51.828-15.672-8.7617-25.164-27.492-40.934-13.656 18.453 19.816 19.977 37.348 2.7539 59.992zm-40.918-210.09c6.5742 0.875 14.496 14.363 21.828 5.4492-6.875-3.6367-14.27-8.6875-21.828-5.4492zm-447.49-5.457c14.531 6.9609 16.129 16.066 38.207 10.906 7.4883 19.801 28.367 26.207 46.379 35.473 9.4922-8.7109 24.492-11.891 32.734-21.828-37.801-22.223-77.641-42.395-114.59-65.484 2.8125 18.613 7.3984 27.805-2.7305 40.934zm422.93-10.922c-0.097656 7.7539 16.957 10.223 16.367 2.7227-10.547 3.0234-9.6953-9.6484-16.367-2.7227zm-693.05 73.668c9.5156-4.1289 19.57-7.7266 24.562-16.367-7.7266-0.45703-11.363-5.0039-19.105-5.4492-0.83594 7.3789-3.9922 9.6836-5.457 21.816zm431.11 24.551c20.062 13.934 44.27 20.16 65.484 2.7344-20.113-20.938-44.664-25.195-65.484-2.7344zm38.195 62.75c-0.23828-7.2109-14.688-14.16-19.094-8.1836 6.543 2.5547 7.2266 10.98 19.094 8.1836z" fill-rule="evenodd"/>
</svg>
